<?xml version="1.0" encoding="utf-8" standalone="no"?>
<!DOCTYPE svg PUBLIC "-//W3C//DTD SVG 1.1//EN"
  "http://www.w3.org/Graphics/SVG/1.1/DTD/svg11.dtd">
<!-- Created with matplotlib (https://matplotlib.org/) -->
<svg height="288pt" version="1.1" viewBox="0 0 1080 288" width="1080pt" xmlns="http://www.w3.org/2000/svg" xmlns:xlink="http://www.w3.org/1999/xlink">
 <metadata>
  <rdf:RDF xmlns:cc="http://creativecommons.org/ns#" xmlns:dc="http://purl.org/dc/elements/1.1/" xmlns:rdf="http://www.w3.org/1999/02/22-rdf-syntax-ns#">
   <cc:Work>
    <dc:type rdf:resource="http://purl.org/dc/dcmitype/StillImage"/>
    <dc:date>2021-01-18T16:29:23.146518</dc:date>
    <dc:format>image/svg+xml</dc:format>
    <dc:creator>
     <cc:Agent>
      <dc:title>Matplotlib v3.3.2, https://matplotlib.org/</dc:title>
     </cc:Agent>
    </dc:creator>
   </cc:Work>
  </rdf:RDF>
 </metadata>
 <defs>
  <style type="text/css">*{stroke-linecap:butt;stroke-linejoin:round;}</style>
 </defs>
 <g id="figure_1">
  <g id="patch_1">
   <path d="M 0 288 
L 1080 288 
L 1080 0 
L 0 0 
z
" style="fill:#ffffff;"/>
  </g>
  <g id="axes_1">
   <g id="patch_2">
    <path d="M 31.39 259.1075 
L 1067.04 259.1075 
L 1067.04 39.6 
L 31.39 39.6 
z
" style="fill:#eaeaf2;"/>
   </g>
   <g id="matplotlib.axis_1">
    <g id="xtick_1">
     <g id="text_1">
      <!-- temp_media -->
      <g style="fill:#262626;" transform="translate(133.33375 273.265312)scale(0.1 -0.1)">
       <defs>
        <path d="M 25.78125 7.859375 
L 27.046875 0.09375 
Q 23.34375 -0.6875 20.40625 -0.6875 
Q 15.625 -0.6875 12.984375 0.828125 
Q 10.359375 2.34375 9.28125 4.8125 
Q 8.203125 7.28125 8.203125 15.1875 
L 8.203125 45.015625 
L 1.765625 45.015625 
L 1.765625 51.859375 
L 8.203125 51.859375 
L 8.203125 64.703125 
L 16.9375 69.96875 
L 16.9375 51.859375 
L 25.78125 51.859375 
L 25.78125 45.015625 
L 16.9375 45.015625 
L 16.9375 14.703125 
Q 16.9375 10.9375 17.40625 9.859375 
Q 17.875 8.796875 18.921875 8.15625 
Q 19.96875 7.515625 21.921875 7.515625 
Q 23.390625 7.515625 25.78125 7.859375 
z
" id="ArialMT-116"/>
        <path d="M 42.09375 16.703125 
L 51.171875 15.578125 
Q 49.03125 7.625 43.21875 3.21875 
Q 37.40625 -1.171875 28.375 -1.171875 
Q 17 -1.171875 10.328125 5.828125 
Q 3.65625 12.84375 3.65625 25.484375 
Q 3.65625 38.578125 10.390625 45.796875 
Q 17.140625 53.03125 27.875 53.03125 
Q 38.28125 53.03125 44.875 45.953125 
Q 51.46875 38.875 51.46875 26.03125 
Q 51.46875 25.25 51.421875 23.6875 
L 12.75 23.6875 
Q 13.234375 15.140625 17.578125 10.59375 
Q 21.921875 6.0625 28.421875 6.0625 
Q 33.25 6.0625 36.671875 8.59375 
Q 40.09375 11.140625 42.09375 16.703125 
z
M 13.234375 30.90625 
L 42.1875 30.90625 
Q 41.609375 37.453125 38.875 40.71875 
Q 34.671875 45.796875 27.984375 45.796875 
Q 21.921875 45.796875 17.796875 41.75 
Q 13.671875 37.703125 13.234375 30.90625 
z
" id="ArialMT-101"/>
        <path d="M 6.59375 0 
L 6.59375 51.859375 
L 14.453125 51.859375 
L 14.453125 44.578125 
Q 16.890625 48.390625 20.9375 50.703125 
Q 25 53.03125 30.171875 53.03125 
Q 35.9375 53.03125 39.625 50.640625 
Q 43.3125 48.25 44.828125 43.953125 
Q 50.984375 53.03125 60.84375 53.03125 
Q 68.5625 53.03125 72.703125 48.75 
Q 76.859375 44.484375 76.859375 35.59375 
L 76.859375 0 
L 68.109375 0 
L 68.109375 32.671875 
Q 68.109375 37.9375 67.25 40.25 
Q 66.40625 42.578125 64.15625 43.984375 
Q 61.921875 45.40625 58.890625 45.40625 
Q 53.421875 45.40625 49.796875 41.765625 
Q 46.1875 38.140625 46.1875 30.125 
L 46.1875 0 
L 37.40625 0 
L 37.40625 33.6875 
Q 37.40625 39.546875 35.25 42.46875 
Q 33.109375 45.40625 28.21875 45.40625 
Q 24.515625 45.40625 21.359375 43.453125 
Q 18.21875 41.5 16.796875 37.734375 
Q 15.375 33.984375 15.375 26.90625 
L 15.375 0 
z
" id="ArialMT-109"/>
        <path d="M 6.59375 -19.875 
L 6.59375 51.859375 
L 14.59375 51.859375 
L 14.59375 45.125 
Q 17.4375 49.078125 21 51.046875 
Q 24.5625 53.03125 29.640625 53.03125 
Q 36.28125 53.03125 41.359375 49.609375 
Q 46.4375 46.1875 49.015625 39.953125 
Q 51.609375 33.734375 51.609375 26.3125 
Q 51.609375 18.359375 48.75 11.984375 
Q 45.90625 5.609375 40.453125 2.21875 
Q 35.015625 -1.171875 29 -1.171875 
Q 24.609375 -1.171875 21.109375 0.6875 
Q 17.625 2.546875 15.375 5.375 
L 15.375 -19.875 
z
M 14.546875 25.640625 
Q 14.546875 15.625 18.59375 10.84375 
Q 22.65625 6.0625 28.421875 6.0625 
Q 34.28125 6.0625 38.453125 11.015625 
Q 42.625 15.96875 42.625 26.375 
Q 42.625 36.28125 38.546875 41.203125 
Q 34.46875 46.140625 28.8125 46.140625 
Q 23.1875 46.140625 18.859375 40.890625 
Q 14.546875 35.640625 14.546875 25.640625 
z
" id="ArialMT-112"/>
        <path d="M -1.515625 -19.875 
L -1.515625 -13.53125 
L 56.734375 -13.53125 
L 56.734375 -19.875 
z
" id="ArialMT-95"/>
        <path d="M 40.234375 0 
L 40.234375 6.546875 
Q 35.296875 -1.171875 25.734375 -1.171875 
Q 19.53125 -1.171875 14.328125 2.25 
Q 9.125 5.671875 6.265625 11.796875 
Q 3.421875 17.921875 3.421875 25.875 
Q 3.421875 33.640625 6 39.96875 
Q 8.59375 46.296875 13.765625 49.65625 
Q 18.953125 53.03125 25.34375 53.03125 
Q 30.03125 53.03125 33.6875 51.046875 
Q 37.359375 49.078125 39.65625 45.90625 
L 39.65625 71.578125 
L 48.390625 71.578125 
L 48.390625 0 
z
M 12.453125 25.875 
Q 12.453125 15.921875 16.640625 10.984375 
Q 20.84375 6.0625 26.5625 6.0625 
Q 32.328125 6.0625 36.34375 10.765625 
Q 40.375 15.484375 40.375 25.140625 
Q 40.375 35.796875 36.265625 40.765625 
Q 32.171875 45.75 26.171875 45.75 
Q 20.3125 45.75 16.375 40.96875 
Q 12.453125 36.1875 12.453125 25.875 
z
" id="ArialMT-100"/>
        <path d="M 6.640625 61.46875 
L 6.640625 71.578125 
L 15.4375 71.578125 
L 15.4375 61.46875 
z
M 6.640625 0 
L 6.640625 51.859375 
L 15.4375 51.859375 
L 15.4375 0 
z
" id="ArialMT-105"/>
        <path d="M 40.4375 6.390625 
Q 35.546875 2.25 31.03125 0.53125 
Q 26.515625 -1.171875 21.34375 -1.171875 
Q 12.796875 -1.171875 8.203125 3 
Q 3.609375 7.171875 3.609375 13.671875 
Q 3.609375 17.484375 5.34375 20.625 
Q 7.078125 23.78125 9.890625 25.6875 
Q 12.703125 27.59375 16.21875 28.5625 
Q 18.796875 29.25 24.03125 29.890625 
Q 34.671875 31.15625 39.703125 32.90625 
Q 39.75 34.71875 39.75 35.203125 
Q 39.75 40.578125 37.25 42.78125 
Q 33.890625 45.75 27.25 45.75 
Q 21.046875 45.75 18.09375 43.578125 
Q 15.140625 41.40625 13.71875 35.890625 
L 5.125 37.0625 
Q 6.296875 42.578125 8.984375 45.96875 
Q 11.671875 49.359375 16.75 51.1875 
Q 21.828125 53.03125 28.515625 53.03125 
Q 35.15625 53.03125 39.296875 51.46875 
Q 43.453125 49.90625 45.40625 47.53125 
Q 47.359375 45.171875 48.140625 41.546875 
Q 48.578125 39.3125 48.578125 33.453125 
L 48.578125 21.734375 
Q 48.578125 9.46875 49.140625 6.21875 
Q 49.703125 2.984375 51.375 0 
L 42.1875 0 
Q 40.828125 2.734375 40.4375 6.390625 
z
M 39.703125 26.03125 
Q 34.90625 24.078125 25.34375 22.703125 
Q 19.921875 21.921875 17.671875 20.9375 
Q 15.4375 19.96875 14.203125 18.09375 
Q 12.984375 16.21875 12.984375 13.921875 
Q 12.984375 10.40625 15.640625 8.0625 
Q 18.3125 5.71875 23.4375 5.71875 
Q 28.515625 5.71875 32.46875 7.9375 
Q 36.421875 10.15625 38.28125 14.015625 
Q 39.703125 17 39.703125 22.796875 
z
" id="ArialMT-97"/>
       </defs>
       <use xlink:href="#ArialMT-116"/>
       <use x="27.783203" xlink:href="#ArialMT-101"/>
       <use x="83.398438" xlink:href="#ArialMT-109"/>
       <use x="166.699219" xlink:href="#ArialMT-112"/>
       <use x="222.314453" xlink:href="#ArialMT-95"/>
       <use x="277.929688" xlink:href="#ArialMT-109"/>
       <use x="361.230469" xlink:href="#ArialMT-101"/>
       <use x="416.845703" xlink:href="#ArialMT-100"/>
       <use x="472.460938" xlink:href="#ArialMT-105"/>
       <use x="494.677734" xlink:href="#ArialMT-97"/>
      </g>
     </g>
    </g>
    <g id="xtick_2">
     <g id="text_2">
      <!-- temp_min -->
      <g style="fill:#262626;" transform="translate(397.807187 273.265312)scale(0.1 -0.1)">
       <defs>
        <path d="M 6.59375 0 
L 6.59375 51.859375 
L 14.5 51.859375 
L 14.5 44.484375 
Q 20.21875 53.03125 31 53.03125 
Q 35.6875 53.03125 39.625 51.34375 
Q 43.5625 49.65625 45.515625 46.921875 
Q 47.46875 44.1875 48.25 40.4375 
Q 48.734375 37.984375 48.734375 31.890625 
L 48.734375 0 
L 39.9375 0 
L 39.9375 31.546875 
Q 39.9375 36.921875 38.90625 39.578125 
Q 37.890625 42.234375 35.28125 43.8125 
Q 32.671875 45.40625 29.15625 45.40625 
Q 23.53125 45.40625 19.453125 41.84375 
Q 15.375 38.28125 15.375 28.328125 
L 15.375 0 
z
" id="ArialMT-110"/>
       </defs>
       <use xlink:href="#ArialMT-116"/>
       <use x="27.783203" xlink:href="#ArialMT-101"/>
       <use x="83.398438" xlink:href="#ArialMT-109"/>
       <use x="166.699219" xlink:href="#ArialMT-112"/>
       <use x="222.314453" xlink:href="#ArialMT-95"/>
       <use x="277.929688" xlink:href="#ArialMT-109"/>
       <use x="361.230469" xlink:href="#ArialMT-105"/>
       <use x="383.447266" xlink:href="#ArialMT-110"/>
      </g>
     </g>
    </g>
    <g id="xtick_3">
     <g id="text_3">
      <!-- temp_max -->
      <g style="fill:#262626;" transform="translate(655.330625 273.265312)scale(0.1 -0.1)">
       <defs>
        <path d="M 0.734375 0 
L 19.671875 26.953125 
L 2.15625 51.859375 
L 13.140625 51.859375 
L 21.09375 39.703125 
Q 23.34375 36.234375 24.703125 33.890625 
Q 26.859375 37.109375 28.65625 39.59375 
L 37.40625 51.859375 
L 47.90625 51.859375 
L 29.984375 27.4375 
L 49.265625 0 
L 38.484375 0 
L 27.828125 16.109375 
L 25 20.453125 
L 11.375 0 
z
" id="ArialMT-120"/>
       </defs>
       <use xlink:href="#ArialMT-116"/>
       <use x="27.783203" xlink:href="#ArialMT-101"/>
       <use x="83.398438" xlink:href="#ArialMT-109"/>
       <use x="166.699219" xlink:href="#ArialMT-112"/>
       <use x="222.314453" xlink:href="#ArialMT-95"/>
       <use x="277.929688" xlink:href="#ArialMT-109"/>
       <use x="361.230469" xlink:href="#ArialMT-97"/>
       <use x="416.845703" xlink:href="#ArialMT-120"/>
      </g>
     </g>
    </g>
    <g id="xtick_4">
     <g id="text_4">
      <!-- chuva -->
      <g style="fill:#262626;" transform="translate(924.242344 273.265312)scale(0.1 -0.1)">
       <defs>
        <path d="M 40.4375 19 
L 49.078125 17.875 
Q 47.65625 8.9375 41.8125 3.875 
Q 35.984375 -1.171875 27.484375 -1.171875 
Q 16.84375 -1.171875 10.375 5.78125 
Q 3.90625 12.75 3.90625 25.734375 
Q 3.90625 34.125 6.6875 40.421875 
Q 9.46875 46.734375 15.15625 49.875 
Q 20.84375 53.03125 27.546875 53.03125 
Q 35.984375 53.03125 41.359375 48.75 
Q 46.734375 44.484375 48.25 36.625 
L 39.703125 35.296875 
Q 38.484375 40.53125 35.375 43.15625 
Q 32.28125 45.796875 27.875 45.796875 
Q 21.234375 45.796875 17.078125 41.03125 
Q 12.9375 36.28125 12.9375 25.984375 
Q 12.9375 15.53125 16.9375 10.796875 
Q 20.953125 6.0625 27.390625 6.0625 
Q 32.5625 6.0625 36.03125 9.234375 
Q 39.5 12.40625 40.4375 19 
z
" id="ArialMT-99"/>
        <path d="M 6.59375 0 
L 6.59375 71.578125 
L 15.375 71.578125 
L 15.375 45.90625 
Q 21.53125 53.03125 30.90625 53.03125 
Q 36.671875 53.03125 40.921875 50.75 
Q 45.171875 48.484375 47 44.484375 
Q 48.828125 40.484375 48.828125 32.859375 
L 48.828125 0 
L 40.046875 0 
L 40.046875 32.859375 
Q 40.046875 39.453125 37.1875 42.453125 
Q 34.328125 45.453125 29.109375 45.453125 
Q 25.203125 45.453125 21.75 43.421875 
Q 18.3125 41.40625 16.84375 37.9375 
Q 15.375 34.46875 15.375 28.375 
L 15.375 0 
z
" id="ArialMT-104"/>
        <path d="M 40.578125 0 
L 40.578125 7.625 
Q 34.515625 -1.171875 24.125 -1.171875 
Q 19.53125 -1.171875 15.546875 0.578125 
Q 11.578125 2.34375 9.640625 5 
Q 7.71875 7.671875 6.9375 11.53125 
Q 6.390625 14.109375 6.390625 19.734375 
L 6.390625 51.859375 
L 15.1875 51.859375 
L 15.1875 23.09375 
Q 15.1875 16.21875 15.71875 13.8125 
Q 16.546875 10.359375 19.234375 8.375 
Q 21.921875 6.390625 25.875 6.390625 
Q 29.828125 6.390625 33.296875 8.421875 
Q 36.765625 10.453125 38.203125 13.9375 
Q 39.65625 17.4375 39.65625 24.078125 
L 39.65625 51.859375 
L 48.4375 51.859375 
L 48.4375 0 
z
" id="ArialMT-117"/>
        <path d="M 21 0 
L 1.265625 51.859375 
L 10.546875 51.859375 
L 21.6875 20.796875 
Q 23.484375 15.765625 25 10.359375 
Q 26.171875 14.453125 28.265625 20.21875 
L 39.796875 51.859375 
L 48.828125 51.859375 
L 29.203125 0 
z
" id="ArialMT-118"/>
       </defs>
       <use xlink:href="#ArialMT-99"/>
       <use x="50" xlink:href="#ArialMT-104"/>
       <use x="105.615234" xlink:href="#ArialMT-117"/>
       <use x="161.230469" xlink:href="#ArialMT-118"/>
       <use x="211.230469" xlink:href="#ArialMT-97"/>
      </g>
     </g>
    </g>
   </g>
   <g id="matplotlib.axis_2">
    <g id="ytick_1">
     <g id="line2d_1">
      <path clip-path="url(#p9b87581532)" d="M 31.39 223.944544 
L 1067.04 223.944544 
" style="fill:none;stroke:#ffffff;stroke-linecap:round;"/>
     </g>
     <g id="text_5">
      <!-- −2 -->
      <g style="fill:#262626;" transform="translate(12.988438 227.523451)scale(0.1 -0.1)">
       <defs>
        <path d="M 52.828125 31.203125 
L 5.5625 31.203125 
L 5.5625 39.40625 
L 52.828125 39.40625 
z
" id="ArialMT-8722"/>
        <path d="M 50.34375 8.453125 
L 50.34375 0 
L 3.03125 0 
Q 2.9375 3.171875 4.046875 6.109375 
Q 5.859375 10.9375 9.828125 15.625 
Q 13.8125 20.3125 21.34375 26.46875 
Q 33.015625 36.03125 37.109375 41.625 
Q 41.21875 47.21875 41.21875 52.203125 
Q 41.21875 57.421875 37.46875 61 
Q 33.734375 64.59375 27.734375 64.59375 
Q 21.390625 64.59375 17.578125 60.78125 
Q 13.765625 56.984375 13.71875 50.25 
L 4.6875 51.171875 
Q 5.609375 61.28125 11.65625 66.578125 
Q 17.71875 71.875 27.9375 71.875 
Q 38.234375 71.875 44.234375 66.15625 
Q 50.25 60.453125 50.25 52 
Q 50.25 47.703125 48.484375 43.546875 
Q 46.734375 39.40625 42.65625 34.8125 
Q 38.578125 30.21875 29.109375 22.21875 
Q 21.1875 15.578125 18.9375 13.203125 
Q 16.703125 10.84375 15.234375 8.453125 
z
" id="ArialMT-50"/>
       </defs>
       <use xlink:href="#ArialMT-8722"/>
       <use x="58.398438" xlink:href="#ArialMT-50"/>
      </g>
     </g>
    </g>
    <g id="ytick_2">
     <g id="line2d_2">
      <path clip-path="url(#p9b87581532)" d="M 31.39 188.46899 
L 1067.04 188.46899 
" style="fill:none;stroke:#ffffff;stroke-linecap:round;"/>
     </g>
     <g id="text_6">
      <!-- 0 -->
      <g style="fill:#262626;" transform="translate(18.829063 192.047896)scale(0.1 -0.1)">
       <defs>
        <path d="M 4.15625 35.296875 
Q 4.15625 48 6.765625 55.734375 
Q 9.375 63.484375 14.515625 67.671875 
Q 19.671875 71.875 27.484375 71.875 
Q 33.25 71.875 37.59375 69.546875 
Q 41.9375 67.234375 44.765625 62.859375 
Q 47.609375 58.5 49.21875 52.21875 
Q 50.828125 45.953125 50.828125 35.296875 
Q 50.828125 22.703125 48.234375 14.96875 
Q 45.65625 7.234375 40.5 3 
Q 35.359375 -1.21875 27.484375 -1.21875 
Q 17.140625 -1.21875 11.234375 6.203125 
Q 4.15625 15.140625 4.15625 35.296875 
z
M 13.1875 35.296875 
Q 13.1875 17.671875 17.3125 11.828125 
Q 21.4375 6 27.484375 6 
Q 33.546875 6 37.671875 11.859375 
Q 41.796875 17.71875 41.796875 35.296875 
Q 41.796875 52.984375 37.671875 58.78125 
Q 33.546875 64.59375 27.390625 64.59375 
Q 21.34375 64.59375 17.71875 59.46875 
Q 13.1875 52.9375 13.1875 35.296875 
z
" id="ArialMT-48"/>
       </defs>
       <use xlink:href="#ArialMT-48"/>
      </g>
     </g>
    </g>
    <g id="ytick_3">
     <g id="line2d_3">
      <path clip-path="url(#p9b87581532)" d="M 31.39 152.993435 
L 1067.04 152.993435 
" style="fill:none;stroke:#ffffff;stroke-linecap:round;"/>
     </g>
     <g id="text_7">
      <!-- 2 -->
      <g style="fill:#262626;" transform="translate(18.829063 156.572341)scale(0.1 -0.1)">
       <use xlink:href="#ArialMT-50"/>
      </g>
     </g>
    </g>
    <g id="ytick_4">
     <g id="line2d_4">
      <path clip-path="url(#p9b87581532)" d="M 31.39 117.51788 
L 1067.04 117.51788 
" style="fill:none;stroke:#ffffff;stroke-linecap:round;"/>
     </g>
     <g id="text_8">
      <!-- 4 -->
      <g style="fill:#262626;" transform="translate(18.829063 121.096786)scale(0.1 -0.1)">
       <defs>
        <path d="M 32.328125 0 
L 32.328125 17.140625 
L 1.265625 17.140625 
L 1.265625 25.203125 
L 33.9375 71.578125 
L 41.109375 71.578125 
L 41.109375 25.203125 
L 50.78125 25.203125 
L 50.78125 17.140625 
L 41.109375 17.140625 
L 41.109375 0 
z
M 32.328125 25.203125 
L 32.328125 57.46875 
L 9.90625 25.203125 
z
" id="ArialMT-52"/>
       </defs>
       <use xlink:href="#ArialMT-52"/>
      </g>
     </g>
    </g>
    <g id="ytick_5">
     <g id="line2d_5">
      <path clip-path="url(#p9b87581532)" d="M 31.39 82.042325 
L 1067.04 82.042325 
" style="fill:none;stroke:#ffffff;stroke-linecap:round;"/>
     </g>
     <g id="text_9">
      <!-- 6 -->
      <g style="fill:#262626;" transform="translate(18.829063 85.621232)scale(0.1 -0.1)">
       <defs>
        <path d="M 49.75 54.046875 
L 41.015625 53.375 
Q 39.84375 58.546875 37.703125 60.890625 
Q 34.125 64.65625 28.90625 64.65625 
Q 24.703125 64.65625 21.53125 62.3125 
Q 17.390625 59.28125 14.984375 53.46875 
Q 12.59375 47.65625 12.5 36.921875 
Q 15.671875 41.75 20.265625 44.09375 
Q 24.859375 46.4375 29.890625 46.4375 
Q 38.671875 46.4375 44.84375 39.96875 
Q 51.03125 33.5 51.03125 23.25 
Q 51.03125 16.5 48.125 10.71875 
Q 45.21875 4.9375 40.140625 1.859375 
Q 35.0625 -1.21875 28.609375 -1.21875 
Q 17.625 -1.21875 10.6875 6.859375 
Q 3.765625 14.9375 3.765625 33.5 
Q 3.765625 54.25 11.421875 63.671875 
Q 18.109375 71.875 29.4375 71.875 
Q 37.890625 71.875 43.28125 67.140625 
Q 48.6875 62.40625 49.75 54.046875 
z
M 13.875 23.1875 
Q 13.875 18.65625 15.796875 14.5 
Q 17.71875 10.359375 21.1875 8.171875 
Q 24.65625 6 28.46875 6 
Q 34.03125 6 38.03125 10.484375 
Q 42.046875 14.984375 42.046875 22.703125 
Q 42.046875 30.125 38.078125 34.390625 
Q 34.125 38.671875 28.125 38.671875 
Q 22.171875 38.671875 18.015625 34.390625 
Q 13.875 30.125 13.875 23.1875 
z
" id="ArialMT-54"/>
       </defs>
       <use xlink:href="#ArialMT-54"/>
      </g>
     </g>
    </g>
    <g id="ytick_6">
     <g id="line2d_6">
      <path clip-path="url(#p9b87581532)" d="M 31.39 46.56677 
L 1067.04 46.56677 
" style="fill:none;stroke:#ffffff;stroke-linecap:round;"/>
     </g>
     <g id="text_10">
      <!-- 8 -->
      <g style="fill:#262626;" transform="translate(18.829063 50.145677)scale(0.1 -0.1)">
       <defs>
        <path d="M 17.671875 38.8125 
Q 12.203125 40.828125 9.5625 44.53125 
Q 6.9375 48.25 6.9375 53.421875 
Q 6.9375 61.234375 12.546875 66.546875 
Q 18.171875 71.875 27.484375 71.875 
Q 36.859375 71.875 42.578125 66.421875 
Q 48.296875 60.984375 48.296875 53.171875 
Q 48.296875 48.1875 45.671875 44.5 
Q 43.0625 40.828125 37.75 38.8125 
Q 44.34375 36.671875 47.78125 31.875 
Q 51.21875 27.09375 51.21875 20.453125 
Q 51.21875 11.28125 44.71875 5.03125 
Q 38.234375 -1.21875 27.640625 -1.21875 
Q 17.046875 -1.21875 10.546875 5.046875 
Q 4.046875 11.328125 4.046875 20.703125 
Q 4.046875 27.6875 7.59375 32.390625 
Q 11.140625 37.109375 17.671875 38.8125 
z
M 15.921875 53.71875 
Q 15.921875 48.640625 19.1875 45.40625 
Q 22.46875 42.1875 27.6875 42.1875 
Q 32.765625 42.1875 36.015625 45.375 
Q 39.265625 48.578125 39.265625 53.21875 
Q 39.265625 58.0625 35.90625 61.359375 
Q 32.5625 64.65625 27.59375 64.65625 
Q 22.5625 64.65625 19.234375 61.421875 
Q 15.921875 58.203125 15.921875 53.71875 
z
M 13.09375 20.65625 
Q 13.09375 16.890625 14.875 13.375 
Q 16.65625 9.859375 20.171875 7.921875 
Q 23.6875 6 27.734375 6 
Q 34.03125 6 38.125 10.046875 
Q 42.234375 14.109375 42.234375 20.359375 
Q 42.234375 26.703125 38.015625 30.859375 
Q 33.796875 35.015625 27.4375 35.015625 
Q 21.234375 35.015625 17.15625 30.90625 
Q 13.09375 26.8125 13.09375 20.65625 
z
" id="ArialMT-56"/>
       </defs>
       <use xlink:href="#ArialMT-56"/>
      </g>
     </g>
    </g>
   </g>
   <g id="PolyCollection_1">
    <defs>
     <path d="M 160.983242 -42.187748 
L 160.709258 -42.187748 
L 160.636979 -43.30717 
L 160.536686 -44.426592 
L 160.401664 -45.546014 
L 160.224478 -46.665436 
L 159.996648 -47.784857 
L 159.708117 -48.904279 
L 159.34667 -50.023701 
L 158.897601 -51.143123 
L 158.343919 -52.262545 
L 157.667287 -53.381967 
L 156.849533 -54.501389 
L 155.874229 -55.62081 
L 154.727567 -56.740232 
L 153.397851 -57.859654 
L 151.873411 -58.979076 
L 150.139547 -60.098498 
L 148.175972 -61.21792 
L 145.956677 -62.337341 
L 143.453805 -63.456763 
L 140.646057 -64.576185 
L 137.530414 -65.695607 
L 134.134291 -66.815029 
L 130.524271 -67.934451 
L 126.807748 -69.053873 
L 123.12538 -70.173294 
L 119.634589 -71.292716 
L 116.486992 -72.412138 
L 113.804434 -73.53156 
L 111.658939 -74.650982 
L 110.060944 -75.770404 
L 108.9581 -76.889826 
L 108.244335 -78.009247 
L 107.776483 -79.128669 
L 107.394421 -80.248091 
L 106.940441 -81.367513 
L 106.274642 -82.486935 
L 105.284806 -83.606357 
L 103.89095 -84.725778 
L 102.045922 -85.8452 
L 99.733723 -86.964622 
L 96.966874 -88.084044 
L 93.783434 -89.203466 
L 90.243782 -90.322888 
L 86.427135 -91.44231 
L 82.427962 -92.561731 
L 78.352653 -93.681153 
L 74.316702 -94.800575 
L 70.442252 -95.919997 
L 66.85534 -97.039419 
L 63.681962 -98.158841 
L 61.042348 -99.278263 
L 59.04351 -100.397684 
L 57.770991 -101.517106 
L 57.28125 -102.636528 
L 57.59623 -103.75595 
L 58.701242 -104.875372 
L 60.546685 -105.994794 
L 63.053453 -107.114215 
L 66.12133 -108.233637 
L 69.639233 -109.353059 
L 73.495809 -110.472481 
L 77.588728 -111.591903 
L 81.831118 -112.711325 
L 86.154146 -113.830747 
L 90.505627 -114.950168 
L 94.845634 -116.06959 
L 99.140878 -117.189012 
L 103.359859 -118.308434 
L 107.470308 -119.427856 
L 111.439354 -120.547278 
L 115.235727 -121.666699 
L 118.832516 -122.786121 
L 122.208973 -123.905543 
L 125.350574 -125.024965 
L 128.247636 -126.144387 
L 130.8937 -127.263809 
L 133.285206 -128.383231 
L 135.423398 -129.502652 
L 137.318245 -130.622074 
L 138.992887 -131.741496 
L 140.486397 -132.860918 
L 141.852821 -133.98034 
L 143.15558 -135.099762 
L 144.457942 -136.219184 
L 145.811795 -137.338605 
L 147.24773 -138.458027 
L 148.769233 -139.577449 
L 150.352585 -140.696871 
L 151.952425 -141.816293 
L 153.511369 -142.935715 
L 154.97112 -144.055136 
L 156.282425 -145.174558 
L 157.41188 -146.29398 
L 158.344702 -147.413402 
L 159.083709 -148.532824 
L 159.64557 -149.652246 
L 160.055744 -150.771668 
L 160.343405 -151.891089 
L 160.537297 -153.010511 
L 161.155203 -153.010511 
L 161.155203 -153.010511 
L 161.349095 -151.891089 
L 161.636756 -150.771668 
L 162.04693 -149.652246 
L 162.608791 -148.532824 
L 163.347798 -147.413402 
L 164.28062 -146.29398 
L 165.410075 -145.174558 
L 166.72138 -144.055136 
L 168.181131 -142.935715 
L 169.740075 -141.816293 
L 171.339915 -140.696871 
L 172.923267 -139.577449 
L 174.44477 -138.458027 
L 175.880705 -137.338605 
L 177.234558 -136.219184 
L 178.53692 -135.099762 
L 179.839679 -133.98034 
L 181.206103 -132.860918 
L 182.699613 -131.741496 
L 184.374255 -130.622074 
L 186.269102 -129.502652 
L 188.407294 -128.383231 
L 190.7988 -127.263809 
L 193.444864 -126.144387 
L 196.341926 -125.024965 
L 199.483527 -123.905543 
L 202.859984 -122.786121 
L 206.456773 -121.666699 
L 210.253146 -120.547278 
L 214.222192 -119.427856 
L 218.332641 -118.308434 
L 222.551622 -117.189012 
L 226.846866 -116.06959 
L 231.186873 -114.950168 
L 235.538354 -113.830747 
L 239.861382 -112.711325 
L 244.103772 -111.591903 
L 248.196691 -110.472481 
L 252.053267 -109.353059 
L 255.57117 -108.233637 
L 258.639047 -107.114215 
L 261.145815 -105.994794 
L 262.991258 -104.875372 
L 264.09627 -103.75595 
L 264.41125 -102.636528 
L 263.921509 -101.517106 
L 262.64899 -100.397684 
L 260.650152 -99.278263 
L 258.010538 -98.158841 
L 254.83716 -97.039419 
L 251.250248 -95.919997 
L 247.375798 -94.800575 
L 243.339847 -93.681153 
L 239.264538 -92.561731 
L 235.265365 -91.44231 
L 231.448718 -90.322888 
L 227.909066 -89.203466 
L 224.725626 -88.084044 
L 221.958777 -86.964622 
L 219.646578 -85.8452 
L 217.80155 -84.725778 
L 216.407694 -83.606357 
L 215.417858 -82.486935 
L 214.752059 -81.367513 
L 214.298079 -80.248091 
L 213.916017 -79.128669 
L 213.448165 -78.009247 
L 212.7344 -76.889826 
L 211.631556 -75.770404 
L 210.033561 -74.650982 
L 207.888066 -73.53156 
L 205.205508 -72.412138 
L 202.057911 -71.292716 
L 198.56712 -70.173294 
L 194.884752 -69.053873 
L 191.168229 -67.934451 
L 187.558209 -66.815029 
L 184.162086 -65.695607 
L 181.046443 -64.576185 
L 178.238695 -63.456763 
L 175.735823 -62.337341 
L 173.516528 -61.21792 
L 171.552953 -60.098498 
L 169.819089 -58.979076 
L 168.294649 -57.859654 
L 166.964933 -56.740232 
L 165.818271 -55.62081 
L 164.842967 -54.501389 
L 164.025213 -53.381967 
L 163.348581 -52.262545 
L 162.794899 -51.143123 
L 162.34583 -50.023701 
L 161.984383 -48.904279 
L 161.695852 -47.784857 
L 161.468022 -46.665436 
L 161.290836 -45.546014 
L 161.155814 -44.426592 
L 161.055521 -43.30717 
L 160.983242 -42.187748 
z
" id="mfaeaf24f3f" style="stroke:#4c4c4c;stroke-width:3;"/>
    </defs>
    <g clip-path="url(#p9b87581532)">
     <use style="fill:#5875a4;stroke:#4c4c4c;stroke-width:3;" x="0" xlink:href="#mfaeaf24f3f" y="288"/>
    </g>
   </g>
   <g id="PolyCollection_2">
    <defs>
     <path d="M 420.194309 -45.566393 
L 419.323191 -45.566393 
L 419.06743 -46.667825 
L 418.701038 -47.769257 
L 418.198219 -48.870689 
L 417.537458 -49.97212 
L 416.706323 -51.073552 
L 415.705911 -52.174984 
L 414.553569 -53.276416 
L 413.282551 -54.377848 
L 411.937781 -55.47928 
L 410.567826 -56.580712 
L 409.214343 -57.682144 
L 407.901275 -58.783576 
L 406.626459 -59.885008 
L 405.358025 -60.98644 
L 404.036863 -62.087872 
L 402.584936 -63.189304 
L 400.917831 -64.290736 
L 398.958949 -65.392167 
L 396.652578 -66.493599 
L 393.973572 -67.595031 
L 390.932284 -68.696463 
L 387.574394 -69.797895 
L 383.97611 -70.899327 
L 380.235703 -72.000759 
L 376.462674 -73.102191 
L 372.765984 -74.203623 
L 369.242954 -75.305055 
L 365.970503 -76.406487 
L 363.000196 -77.507919 
L 360.358034 -78.609351 
L 358.0489 -79.710783 
L 356.064347 -80.812214 
L 354.391341 -81.913646 
L 353.019027 -83.015078 
L 351.941041 -84.11651 
L 351.152152 -85.217942 
L 350.639997 -86.319374 
L 350.374513 -87.420806 
L 350.298899 -88.522238 
L 350.325876 -89.62367 
L 350.341686 -90.725102 
L 350.217922 -91.826534 
L 349.828784 -92.927966 
L 349.069525 -94.029398 
L 347.871377 -95.13083 
L 346.209367 -96.232261 
L 344.101653 -97.333693 
L 341.601641 -98.435125 
L 338.786183 -99.536557 
L 335.744047 -100.637989 
L 332.568323 -101.739421 
L 329.354759 -102.840853 
L 326.205798 -103.942285 
L 323.237828 -105.043717 
L 320.58773 -106.145149 
L 318.414381 -107.246581 
L 316.891901 -108.348013 
L 316.19375 -109.449445 
L 316.469799 -110.550877 
L 317.821307 -111.652308 
L 320.280178 -112.75374 
L 323.798407 -113.855172 
L 328.25106 -114.956604 
L 333.452508 -116.058036 
L 339.18194 -117.159468 
L 345.211963 -118.2609 
L 351.333843 -119.362332 
L 357.37472 -120.463764 
L 363.204997 -121.565196 
L 368.737017 -122.666628 
L 373.918084 -123.76806 
L 378.721409 -124.869492 
L 383.13789 -125.970924 
L 387.170225 -127.072355 
L 390.829471 -128.173787 
L 394.133286 -129.275219 
L 397.104805 -130.376651 
L 399.771362 -131.478083 
L 402.162773 -132.579515 
L 404.309283 -133.680947 
L 406.23955 -134.782379 
L 407.97904 -135.883811 
L 409.549068 -136.985243 
L 410.966578 -138.086675 
L 412.244559 -139.188107 
L 413.39288 -140.289539 
L 414.419295 -141.39097 
L 415.330373 -142.492402 
L 416.13219 -143.593834 
L 416.830752 -144.695266 
L 417.432198 -145.796698 
L 417.942896 -146.89813 
L 418.369526 -147.999562 
L 418.719198 -149.100994 
L 418.999544 -150.202426 
L 419.218747 -151.303858 
L 419.385416 -152.40529 
L 419.508326 -153.506722 
L 419.596034 -154.608154 
L 419.921466 -154.608154 
L 419.921466 -154.608154 
L 420.009174 -153.506722 
L 420.132084 -152.40529 
L 420.298753 -151.303858 
L 420.517956 -150.202426 
L 420.798302 -149.100994 
L 421.147974 -147.999562 
L 421.574604 -146.89813 
L 422.085302 -145.796698 
L 422.686748 -144.695266 
L 423.38531 -143.593834 
L 424.187127 -142.492402 
L 425.098205 -141.39097 
L 426.12462 -140.289539 
L 427.272941 -139.188107 
L 428.550922 -138.086675 
L 429.968432 -136.985243 
L 431.53846 -135.883811 
L 433.27795 -134.782379 
L 435.208217 -133.680947 
L 437.354727 -132.579515 
L 439.746138 -131.478083 
L 442.412695 -130.376651 
L 445.384214 -129.275219 
L 448.688029 -128.173787 
L 452.347275 -127.072355 
L 456.37961 -125.970924 
L 460.796091 -124.869492 
L 465.599416 -123.76806 
L 470.780483 -122.666628 
L 476.312503 -121.565196 
L 482.14278 -120.463764 
L 488.183657 -119.362332 
L 494.305537 -118.2609 
L 500.33556 -117.159468 
L 506.064992 -116.058036 
L 511.26644 -114.956604 
L 515.719093 -113.855172 
L 519.237322 -112.75374 
L 521.696193 -111.652308 
L 523.047701 -110.550877 
L 523.32375 -109.449445 
L 522.625599 -108.348013 
L 521.103119 -107.246581 
L 518.92977 -106.145149 
L 516.279672 -105.043717 
L 513.311702 -103.942285 
L 510.162741 -102.840853 
L 506.949177 -101.739421 
L 503.773453 -100.637989 
L 500.731317 -99.536557 
L 497.915859 -98.435125 
L 495.415847 -97.333693 
L 493.308133 -96.232261 
L 491.646123 -95.13083 
L 490.447975 -94.029398 
L 489.688716 -92.927966 
L 489.299578 -91.826534 
L 489.175814 -90.725102 
L 489.191624 -89.62367 
L 489.218601 -88.522238 
L 489.142987 -87.420806 
L 488.877503 -86.319374 
L 488.365348 -85.217942 
L 487.576459 -84.11651 
L 486.498473 -83.015078 
L 485.126159 -81.913646 
L 483.453153 -80.812214 
L 481.4686 -79.710783 
L 479.159466 -78.609351 
L 476.517304 -77.507919 
L 473.546997 -76.406487 
L 470.274546 -75.305055 
L 466.751516 -74.203623 
L 463.054826 -73.102191 
L 459.281797 -72.000759 
L 455.54139 -70.899327 
L 451.943106 -69.797895 
L 448.585216 -68.696463 
L 445.543928 -67.595031 
L 442.864922 -66.493599 
L 440.558551 -65.392167 
L 438.599669 -64.290736 
L 436.932564 -63.189304 
L 435.480637 -62.087872 
L 434.159475 -60.98644 
L 432.891041 -59.885008 
L 431.616225 -58.783576 
L 430.303157 -57.682144 
L 428.949674 -56.580712 
L 427.579719 -55.47928 
L 426.234949 -54.377848 
L 424.963931 -53.276416 
L 423.811589 -52.174984 
L 422.811177 -51.073552 
L 421.980042 -49.97212 
L 421.319281 -48.870689 
L 420.816462 -47.769257 
L 420.45007 -46.667825 
L 420.194309 -45.566393 
z
" id="m0a8432e17d" style="stroke:#4c4c4c;stroke-width:3;"/>
    </defs>
    <g clip-path="url(#p9b87581532)">
     <use style="fill:#5f9e6e;stroke:#4c4c4c;stroke-width:3;" x="0" xlink:href="#m0a8432e17d" y="288"/>
    </g>
   </g>
   <g id="PolyCollection_3">
    <defs>
     <path d="M 678.818722 -38.870114 
L 678.523778 -38.870114 
L 678.443208 -40.003332 
L 678.330766 -41.13655 
L 678.179706 -42.269768 
L 677.984014 -43.402987 
L 677.739054 -44.536205 
L 677.441978 -45.669423 
L 677.091719 -46.802641 
L 676.688418 -47.935859 
L 676.232206 -49.069078 
L 675.721444 -50.202296 
L 675.150666 -51.335514 
L 674.508713 -52.468732 
L 673.77768 -53.60195 
L 672.933325 -54.735169 
L 671.947327 -55.868387 
L 670.791328 -57.001605 
L 669.442018 -58.134823 
L 667.886038 -59.268042 
L 666.12327 -60.40126 
L 664.167473 -61.534478 
L 662.044081 -62.667696 
L 659.785976 -63.800914 
L 657.428776 -64.934133 
L 655.007289 -66.067351 
L 652.554115 -67.200569 
L 650.100277 -68.333787 
L 647.676713 -69.467006 
L 645.314948 -70.600224 
L 643.045616 -71.733442 
L 640.89454 -72.86666 
L 638.877311 -73.999878 
L 636.994201 -75.133097 
L 635.227343 -76.266315 
L 633.541373 -77.399533 
L 631.887513 -78.532751 
L 630.209929 -79.665969 
L 628.452572 -80.799188 
L 626.56479 -81.932406 
L 624.504692 -83.065624 
L 622.240095 -84.198842 
L 619.747678 -85.332061 
L 617.011411 -86.465279 
L 614.021451 -87.598497 
L 610.774588 -88.731715 
L 607.276956 -89.864933 
L 603.549157 -90.998152 
L 599.633072 -92.13137 
L 595.598676 -93.264588 
L 591.548415 -94.397806 
L 587.616585 -95.531025 
L 583.962009 -96.664243 
L 580.753987 -97.797461 
L 578.153618 -98.930679 
L 576.294313 -100.063897 
L 575.265935 -101.197116 
L 575.10625 -102.330334 
L 575.801364 -103.463552 
L 577.29432 -104.59677 
L 579.498846 -105.729988 
L 582.314155 -106.863207 
L 585.636931 -107.996425 
L 589.368168 -109.129643 
L 593.414549 -110.262861 
L 597.686031 -111.39608 
L 602.09239 -112.529298 
L 606.541564 -113.662516 
L 610.941637 -114.795734 
L 615.206761 -115.928952 
L 619.265683 -117.062171 
L 623.070366 -118.195389 
L 626.60186 -119.328607 
L 629.871056 -120.461825 
L 632.9134 -121.595044 
L 635.778365 -122.728262 
L 638.516237 -123.86148 
L 641.165786 -124.994698 
L 643.746337 -126.127916 
L 646.256478 -127.261135 
L 648.679598 -128.394353 
L 650.994213 -129.527571 
L 653.18548 -130.660789 
L 655.253932 -131.794007 
L 657.218444 -132.927226 
L 659.112419 -134.060444 
L 660.974467 -135.193662 
L 662.836641 -136.32688 
L 664.714018 -137.460099 
L 666.598857 -138.593317 
L 668.460958 -139.726535 
L 670.253859 -140.859753 
L 671.92479 -141.992971 
L 673.425431 -143.12619 
L 674.720657 -144.259408 
L 675.793464 -145.392626 
L 676.645577 -146.525844 
L 677.294464 -147.659063 
L 677.768224 -148.792281 
L 678.09993 -149.925499 
L 678.322709 -151.058717 
L 679.019791 -151.058717 
L 679.019791 -151.058717 
L 679.24257 -149.925499 
L 679.574276 -148.792281 
L 680.048036 -147.659063 
L 680.696923 -146.525844 
L 681.549036 -145.392626 
L 682.621843 -144.259408 
L 683.917069 -143.12619 
L 685.41771 -141.992971 
L 687.088641 -140.859753 
L 688.881542 -139.726535 
L 690.743643 -138.593317 
L 692.628482 -137.460099 
L 694.505859 -136.32688 
L 696.368033 -135.193662 
L 698.230081 -134.060444 
L 700.124056 -132.927226 
L 702.088568 -131.794007 
L 704.15702 -130.660789 
L 706.348287 -129.527571 
L 708.662902 -128.394353 
L 711.086022 -127.261135 
L 713.596163 -126.127916 
L 716.176714 -124.994698 
L 718.826263 -123.86148 
L 721.564135 -122.728262 
L 724.4291 -121.595044 
L 727.471444 -120.461825 
L 730.74064 -119.328607 
L 734.272134 -118.195389 
L 738.076817 -117.062171 
L 742.135739 -115.928952 
L 746.400863 -114.795734 
L 750.800936 -113.662516 
L 755.25011 -112.529298 
L 759.656469 -111.39608 
L 763.927951 -110.262861 
L 767.974332 -109.129643 
L 771.705569 -107.996425 
L 775.028345 -106.863207 
L 777.843654 -105.729988 
L 780.04818 -104.59677 
L 781.541136 -103.463552 
L 782.23625 -102.330334 
L 782.076565 -101.197116 
L 781.048187 -100.063897 
L 779.188882 -98.930679 
L 776.588513 -97.797461 
L 773.380491 -96.664243 
L 769.725915 -95.531025 
L 765.794085 -94.397806 
L 761.743824 -93.264588 
L 757.709428 -92.13137 
L 753.793343 -90.998152 
L 750.065544 -89.864933 
L 746.567912 -88.731715 
L 743.321049 -87.598497 
L 740.331089 -86.465279 
L 737.594822 -85.332061 
L 735.102405 -84.198842 
L 732.837808 -83.065624 
L 730.77771 -81.932406 
L 728.889928 -80.799188 
L 727.132571 -79.665969 
L 725.454987 -78.532751 
L 723.801127 -77.399533 
L 722.115157 -76.266315 
L 720.348299 -75.133097 
L 718.465189 -73.999878 
L 716.44796 -72.86666 
L 714.296884 -71.733442 
L 712.027552 -70.600224 
L 709.665787 -69.467006 
L 707.242223 -68.333787 
L 704.788385 -67.200569 
L 702.335211 -66.067351 
L 699.913724 -64.934133 
L 697.556524 -63.800914 
L 695.298419 -62.667696 
L 693.175027 -61.534478 
L 691.21923 -60.40126 
L 689.456462 -59.268042 
L 687.900482 -58.134823 
L 686.551172 -57.001605 
L 685.395173 -55.868387 
L 684.409175 -54.735169 
L 683.56482 -53.60195 
L 682.833787 -52.468732 
L 682.191834 -51.335514 
L 681.621056 -50.202296 
L 681.110294 -49.069078 
L 680.654082 -47.935859 
L 680.250781 -46.802641 
L 679.900522 -45.669423 
L 679.603446 -44.536205 
L 679.358486 -43.402987 
L 679.162794 -42.269768 
L 679.011734 -41.13655 
L 678.899292 -40.003332 
L 678.818722 -38.870114 
z
" id="m0f1b094c12" style="stroke:#4c4c4c;stroke-width:3;"/>
    </defs>
    <g clip-path="url(#p9b87581532)">
     <use style="fill:#b55d60;stroke:#4c4c4c;stroke-width:3;" x="0" xlink:href="#m0f1b094c12" y="288"/>
    </g>
   </g>
   <g id="PolyCollection_4">
    <defs>
     <path d="M 949.96844 -81.206865 
L 925.19906 -81.206865 
L 916.112075 -82.794901 
L 903.331194 -84.382936 
L 887.287013 -85.970972 
L 869.563703 -87.559007 
L 852.803129 -89.147043 
L 840.095779 -90.735078 
L 834.01875 -92.323114 
L 835.730808 -93.911149 
L 844.566828 -95.499185 
L 858.332212 -97.087221 
L 874.129349 -98.675256 
L 889.296751 -100.263292 
L 902.055301 -101.851327 
L 911.684112 -103.439363 
L 918.309403 -105.027398 
L 922.527049 -106.615434 
L 925.060088 -108.20347 
L 926.54774 -109.791505 
L 927.46352 -111.379541 
L 928.113583 -112.967576 
L 928.667756 -114.555612 
L 929.196796 -116.143647 
L 929.707479 -117.731683 
L 930.17462 -119.319719 
L 930.568948 -120.907754 
L 930.877585 -122.49579 
L 931.113575 -124.083825 
L 931.313243 -125.671861 
L 931.524021 -127.259896 
L 931.788418 -128.847932 
L 932.1305 -130.435968 
L 932.549318 -132.024003 
L 933.020439 -133.612039 
L 933.503774 -135.200074 
L 933.95444 -136.78811 
L 934.333654 -138.376145 
L 934.617767 -139.964181 
L 934.804203 -141.552217 
L 934.912853 -143.140252 
L 934.98131 -144.728288 
L 935.053726 -146.316323 
L 935.166195 -147.904359 
L 935.334463 -149.492394 
L 935.549791 -151.08043 
L 935.785165 -152.668466 
L 936.00878 -154.256501 
L 936.198073 -155.844537 
L 936.347718 -157.432572 
L 936.468474 -159.020608 
L 936.57852 -160.608643 
L 936.692428 -162.196679 
L 936.813524 -163.784715 
L 936.933111 -165.37275 
L 937.036204 -166.960786 
L 937.110132 -168.548821 
L 937.151361 -170.136857 
L 937.167304 -171.724892 
L 937.172691 -173.312928 
L 937.182744 -174.900964 
L 937.20658 -176.488999 
L 937.24383 -178.077035 
L 937.285598 -179.66507 
L 937.318911 -181.253106 
L 937.332451 -182.841141 
L 937.321213 -184.429177 
L 937.288401 -186.017213 
L 937.244002 -187.605248 
L 937.200659 -189.193284 
L 937.168533 -190.781319 
L 937.151468 -192.369355 
L 937.146379 -193.95739 
L 937.146188 -195.545426 
L 937.144626 -197.133462 
L 937.139966 -198.721497 
L 937.135384 -200.309533 
L 937.135861 -201.897568 
L 937.143875 -203.485604 
L 937.156959 -205.073639 
L 937.168915 -206.661675 
L 937.173915 -208.249711 
L 937.170695 -209.837746 
L 937.163924 -211.425782 
L 937.161673 -213.013817 
L 937.170444 -214.601853 
L 937.190822 -216.189888 
L 937.216461 -217.777924 
L 937.237123 -219.36596 
L 937.244141 -220.953995 
L 937.235329 -222.542031 
L 937.216717 -224.130066 
L 937.200215 -225.718102 
L 937.198436 -227.306137 
L 937.219313 -228.894173 
L 937.263112 -230.482209 
L 937.322982 -232.070244 
L 937.388334 -233.65828 
L 937.449025 -235.246315 
L 937.498365 -236.834351 
L 937.534021 -238.422386 
L 937.633479 -238.422386 
L 937.633479 -238.422386 
L 937.669135 -236.834351 
L 937.718475 -235.246315 
L 937.779166 -233.65828 
L 937.844518 -232.070244 
L 937.904388 -230.482209 
L 937.948187 -228.894173 
L 937.969064 -227.306137 
L 937.967285 -225.718102 
L 937.950783 -224.130066 
L 937.932171 -222.542031 
L 937.923359 -220.953995 
L 937.930377 -219.36596 
L 937.951039 -217.777924 
L 937.976678 -216.189888 
L 937.997056 -214.601853 
L 938.005827 -213.013817 
L 938.003576 -211.425782 
L 937.996805 -209.837746 
L 937.993585 -208.249711 
L 937.998585 -206.661675 
L 938.010541 -205.073639 
L 938.023625 -203.485604 
L 938.031639 -201.897568 
L 938.032116 -200.309533 
L 938.027534 -198.721497 
L 938.022874 -197.133462 
L 938.021312 -195.545426 
L 938.021121 -193.95739 
L 938.016032 -192.369355 
L 937.998967 -190.781319 
L 937.966841 -189.193284 
L 937.923498 -187.605248 
L 937.879099 -186.017213 
L 937.846287 -184.429177 
L 937.835049 -182.841141 
L 937.848589 -181.253106 
L 937.881902 -179.66507 
L 937.92367 -178.077035 
L 937.96092 -176.488999 
L 937.984756 -174.900964 
L 937.994809 -173.312928 
L 938.000196 -171.724892 
L 938.016139 -170.136857 
L 938.057368 -168.548821 
L 938.131296 -166.960786 
L 938.234389 -165.37275 
L 938.353976 -163.784715 
L 938.475072 -162.196679 
L 938.58898 -160.608643 
L 938.699026 -159.020608 
L 938.819782 -157.432572 
L 938.969427 -155.844537 
L 939.15872 -154.256501 
L 939.382335 -152.668466 
L 939.617709 -151.08043 
L 939.833037 -149.492394 
L 940.001305 -147.904359 
L 940.113774 -146.316323 
L 940.18619 -144.728288 
L 940.254647 -143.140252 
L 940.363297 -141.552217 
L 940.549733 -139.964181 
L 940.833846 -138.376145 
L 941.21306 -136.78811 
L 941.663726 -135.200074 
L 942.147061 -133.612039 
L 942.618182 -132.024003 
L 943.037 -130.435968 
L 943.379082 -128.847932 
L 943.643479 -127.259896 
L 943.854257 -125.671861 
L 944.053925 -124.083825 
L 944.289915 -122.49579 
L 944.598552 -120.907754 
L 944.99288 -119.319719 
L 945.460021 -117.731683 
L 945.970704 -116.143647 
L 946.499744 -114.555612 
L 947.053917 -112.967576 
L 947.70398 -111.379541 
L 948.61976 -109.791505 
L 950.107412 -108.20347 
L 952.640451 -106.615434 
L 956.858097 -105.027398 
L 963.483388 -103.439363 
L 973.112199 -101.851327 
L 985.870749 -100.263292 
L 1001.038151 -98.675256 
L 1016.835288 -97.087221 
L 1030.600672 -95.499185 
L 1039.436692 -93.911149 
L 1041.14875 -92.323114 
L 1035.071721 -90.735078 
L 1022.364371 -89.147043 
L 1005.603797 -87.559007 
L 987.880487 -85.970972 
L 971.836306 -84.382936 
L 959.055425 -82.794901 
L 949.96844 -81.206865 
z
" id="mb7df502fe7" style="stroke:#4c4c4c;stroke-width:3;"/>
    </defs>
    <g clip-path="url(#p9b87581532)">
     <use style="fill:#857aaa;stroke:#4c4c4c;stroke-width:3;" x="0" xlink:href="#mb7df502fe7" y="288"/>
    </g>
   </g>
   <g id="line2d_7">
    <path clip-path="url(#p9b87581532)" d="M 160.84625 234.911144 
L 160.84625 145.890596 
" style="fill:none;stroke:#4c4c4c;stroke-linecap:round;stroke-width:3;"/>
   </g>
   <g id="line2d_8">
    <path clip-path="url(#p9b87581532)" d="M 160.84625 200.775445 
L 160.84625 177.014322 
" style="fill:none;stroke:#4c4c4c;stroke-linecap:round;stroke-width:9;"/>
   </g>
   <g id="line2d_9">
    <path clip-path="url(#p9b87581532)" d="M 419.75875 231.5325 
L 419.75875 144.292954 
" style="fill:none;stroke:#4c4c4c;stroke-linecap:round;stroke-width:3;"/>
   </g>
   <g id="line2d_10">
    <path clip-path="url(#p9b87581532)" d="M 419.75875 202.034236 
L 419.75875 175.046463 
" style="fill:none;stroke:#4c4c4c;stroke-linecap:round;stroke-width:9;"/>
   </g>
   <g id="line2d_11">
    <path clip-path="url(#p9b87581532)" d="M 678.67125 233.709459 
L 678.67125 147.84239 
" style="fill:none;stroke:#4c4c4c;stroke-linecap:round;stroke-width:3;"/>
   </g>
   <g id="line2d_12">
    <path clip-path="url(#p9b87581532)" d="M 678.67125 200.019987 
L 678.67125 177.012543 
" style="fill:none;stroke:#4c4c4c;stroke-linecap:round;stroke-width:9;"/>
   </g>
   <g id="line2d_13">
    <path clip-path="url(#p9b87581532)" d="M 937.58375 195.892028 
L 937.58375 185.036108 
" style="fill:none;stroke:#4c4c4c;stroke-linecap:round;stroke-width:3;"/>
   </g>
   <g id="line2d_14">
    <path clip-path="url(#p9b87581532)" d="M 937.58375 195.892028 
L 937.58375 191.321114 
" style="fill:none;stroke:#4c4c4c;stroke-linecap:round;stroke-width:9;"/>
   </g>
   <g id="patch_3">
    <path d="M 31.39 259.1075 
L 31.39 39.6 
" style="fill:none;"/>
   </g>
   <g id="patch_4">
    <path d="M 1067.04 259.1075 
L 1067.04 39.6 
" style="fill:none;"/>
   </g>
   <g id="patch_5">
    <path d="M 31.39 259.1075 
L 1067.04 259.1075 
" style="fill:none;"/>
   </g>
   <g id="patch_6">
    <path d="M 31.39 39.6 
L 1067.04 39.6 
" style="fill:none;"/>
   </g>
   <g id="PathCollection_1">
    <defs>
     <path d="M 0 3 
C 0.795609 3 1.55874 2.683901 2.12132 2.12132 
C 2.683901 1.55874 3 0.795609 3 0 
C 3 -0.795609 2.683901 -1.55874 2.12132 -2.12132 
C 1.55874 -2.683901 0.795609 -3 0 -3 
C -0.795609 -3 -1.55874 -2.683901 -2.12132 -2.12132 
C -2.683901 -1.55874 -3 -0.795609 -3 0 
C -3 0.795609 -2.683901 1.55874 -2.12132 2.12132 
C -1.55874 2.683901 -0.795609 3 0 3 
z
" id="mf4dd3a4701" style="stroke:#4c4c4c;stroke-width:0.3;"/>
    </defs>
    <g clip-path="url(#p9b87581532)">
     <use style="fill:#ffffff;stroke:#4c4c4c;stroke-width:0.3;" x="160.84625" xlink:href="#mf4dd3a4701" y="187.612006"/>
    </g>
   </g>
   <g id="PathCollection_2">
    <g clip-path="url(#p9b87581532)">
     <use style="fill:#ffffff;stroke:#4c4c4c;stroke-width:0.3;" x="419.75875" xlink:href="#mf4dd3a4701" y="185.716048"/>
    </g>
   </g>
   <g id="PathCollection_3">
    <g clip-path="url(#p9b87581532)">
     <use style="fill:#ffffff;stroke:#4c4c4c;stroke-width:0.3;" x="678.67125" xlink:href="#mf4dd3a4701" y="187.283724"/>
    </g>
   </g>
   <g id="PathCollection_4">
    <g clip-path="url(#p9b87581532)">
     <use style="fill:#ffffff;stroke:#4c4c4c;stroke-width:0.3;" x="937.58375" xlink:href="#mf4dd3a4701" y="195.892028"/>
    </g>
   </g>
  </g>
  <g id="text_11">
   <!-- Violin Plot of all Continuous Variables -->
   <g style="fill:#262626;" transform="translate(416.035547 16.496719)scale(0.15 -0.15)">
    <defs>
     <path d="M 28.171875 0 
L 0.4375 71.578125 
L 10.6875 71.578125 
L 29.296875 19.578125 
Q 31.546875 13.328125 33.0625 7.859375 
Q 34.71875 13.71875 36.921875 19.578125 
L 56.25 71.578125 
L 65.921875 71.578125 
L 37.890625 0 
z
" id="ArialMT-86"/>
     <path d="M 3.328125 25.921875 
Q 3.328125 40.328125 11.328125 47.265625 
Q 18.015625 53.03125 27.640625 53.03125 
Q 38.328125 53.03125 45.109375 46.015625 
Q 51.90625 39.015625 51.90625 26.65625 
Q 51.90625 16.65625 48.90625 10.90625 
Q 45.90625 5.171875 40.15625 2 
Q 34.421875 -1.171875 27.640625 -1.171875 
Q 16.75 -1.171875 10.03125 5.8125 
Q 3.328125 12.796875 3.328125 25.921875 
z
M 12.359375 25.921875 
Q 12.359375 15.96875 16.703125 11.015625 
Q 21.046875 6.0625 27.640625 6.0625 
Q 34.1875 6.0625 38.53125 11.03125 
Q 42.875 16.015625 42.875 26.21875 
Q 42.875 35.84375 38.5 40.796875 
Q 34.125 45.75 27.640625 45.75 
Q 21.046875 45.75 16.703125 40.8125 
Q 12.359375 35.890625 12.359375 25.921875 
z
" id="ArialMT-111"/>
     <path d="M 6.390625 0 
L 6.390625 71.578125 
L 15.1875 71.578125 
L 15.1875 0 
z
" id="ArialMT-108"/>
     <path id="ArialMT-32"/>
     <path d="M 7.71875 0 
L 7.71875 71.578125 
L 34.71875 71.578125 
Q 41.84375 71.578125 45.609375 70.90625 
Q 50.875 70.015625 54.4375 67.546875 
Q 58.015625 65.09375 60.1875 60.640625 
Q 62.359375 56.203125 62.359375 50.875 
Q 62.359375 41.75 56.546875 35.421875 
Q 50.734375 29.109375 35.546875 29.109375 
L 17.1875 29.109375 
L 17.1875 0 
z
M 17.1875 37.546875 
L 35.6875 37.546875 
Q 44.875 37.546875 48.734375 40.96875 
Q 52.59375 44.390625 52.59375 50.59375 
Q 52.59375 55.078125 50.3125 58.265625 
Q 48.046875 61.46875 44.34375 62.5 
Q 41.9375 63.140625 35.5 63.140625 
L 17.1875 63.140625 
z
" id="ArialMT-80"/>
     <path d="M 8.6875 0 
L 8.6875 45.015625 
L 0.921875 45.015625 
L 0.921875 51.859375 
L 8.6875 51.859375 
L 8.6875 57.375 
Q 8.6875 62.59375 9.625 65.140625 
Q 10.890625 68.5625 14.078125 70.671875 
Q 17.28125 72.796875 23.046875 72.796875 
Q 26.765625 72.796875 31.25 71.921875 
L 29.9375 64.265625 
Q 27.203125 64.75 24.75 64.75 
Q 20.75 64.75 19.09375 63.03125 
Q 17.4375 61.328125 17.4375 56.640625 
L 17.4375 51.859375 
L 27.546875 51.859375 
L 27.546875 45.015625 
L 17.4375 45.015625 
L 17.4375 0 
z
" id="ArialMT-102"/>
     <path d="M 58.796875 25.09375 
L 68.265625 22.703125 
Q 65.28125 11.03125 57.546875 4.90625 
Q 49.8125 -1.21875 38.625 -1.21875 
Q 27.046875 -1.21875 19.796875 3.484375 
Q 12.546875 8.203125 8.765625 17.140625 
Q 4.984375 26.078125 4.984375 36.328125 
Q 4.984375 47.515625 9.25 55.828125 
Q 13.53125 64.15625 21.40625 68.46875 
Q 29.296875 72.796875 38.765625 72.796875 
Q 49.515625 72.796875 56.828125 67.328125 
Q 64.15625 61.859375 67.046875 51.953125 
L 57.71875 49.75 
Q 55.21875 57.5625 50.484375 61.125 
Q 45.75 64.703125 38.578125 64.703125 
Q 30.328125 64.703125 24.78125 60.734375 
Q 19.234375 56.78125 16.984375 50.109375 
Q 14.75 43.453125 14.75 36.375 
Q 14.75 27.25 17.40625 20.4375 
Q 20.0625 13.625 25.671875 10.25 
Q 31.296875 6.890625 37.84375 6.890625 
Q 45.796875 6.890625 51.3125 11.46875 
Q 56.84375 16.0625 58.796875 25.09375 
z
" id="ArialMT-67"/>
     <path d="M 3.078125 15.484375 
L 11.765625 16.84375 
Q 12.5 11.625 15.84375 8.84375 
Q 19.1875 6.0625 25.203125 6.0625 
Q 31.25 6.0625 34.171875 8.515625 
Q 37.109375 10.984375 37.109375 14.3125 
Q 37.109375 17.28125 34.515625 19 
Q 32.71875 20.171875 25.53125 21.96875 
Q 15.875 24.421875 12.140625 26.203125 
Q 8.40625 27.984375 6.46875 31.125 
Q 4.546875 34.28125 4.546875 38.09375 
Q 4.546875 41.546875 6.125 44.5 
Q 7.71875 47.46875 10.453125 49.421875 
Q 12.5 50.921875 16.03125 51.96875 
Q 19.578125 53.03125 23.640625 53.03125 
Q 29.734375 53.03125 34.34375 51.265625 
Q 38.96875 49.515625 41.15625 46.5 
Q 43.359375 43.5 44.1875 38.484375 
L 35.59375 37.3125 
Q 35.015625 41.3125 32.203125 43.546875 
Q 29.390625 45.796875 24.265625 45.796875 
Q 18.21875 45.796875 15.625 43.796875 
Q 13.03125 41.796875 13.03125 39.109375 
Q 13.03125 37.40625 14.109375 36.03125 
Q 15.1875 34.625 17.484375 33.6875 
Q 18.796875 33.203125 25.25 31.453125 
Q 34.578125 28.953125 38.25 27.359375 
Q 41.9375 25.78125 44.03125 22.75 
Q 46.140625 19.734375 46.140625 15.234375 
Q 46.140625 10.84375 43.578125 6.953125 
Q 41.015625 3.078125 36.171875 0.953125 
Q 31.34375 -1.171875 25.25 -1.171875 
Q 15.140625 -1.171875 9.84375 3.03125 
Q 4.546875 7.234375 3.078125 15.484375 
z
" id="ArialMT-115"/>
     <path d="M 6.5 0 
L 6.5 51.859375 
L 14.40625 51.859375 
L 14.40625 44 
Q 17.4375 49.515625 20 51.265625 
Q 22.5625 53.03125 25.640625 53.03125 
Q 30.078125 53.03125 34.671875 50.203125 
L 31.640625 42.046875 
Q 28.421875 43.953125 25.203125 43.953125 
Q 22.3125 43.953125 20.015625 42.21875 
Q 17.71875 40.484375 16.75 37.40625 
Q 15.28125 32.71875 15.28125 27.15625 
L 15.28125 0 
z
" id="ArialMT-114"/>
     <path d="M 14.703125 0 
L 6.546875 0 
L 6.546875 71.578125 
L 15.328125 71.578125 
L 15.328125 46.046875 
Q 20.90625 53.03125 29.546875 53.03125 
Q 34.328125 53.03125 38.59375 51.09375 
Q 42.875 49.171875 45.625 45.671875 
Q 48.390625 42.1875 49.953125 37.25 
Q 51.515625 32.328125 51.515625 26.703125 
Q 51.515625 13.375 44.921875 6.09375 
Q 38.328125 -1.171875 29.109375 -1.171875 
Q 19.921875 -1.171875 14.703125 6.5 
z
M 14.59375 26.3125 
Q 14.59375 17 17.140625 12.84375 
Q 21.296875 6.0625 28.375 6.0625 
Q 34.125 6.0625 38.328125 11.0625 
Q 42.53125 16.0625 42.53125 25.984375 
Q 42.53125 36.140625 38.5 40.96875 
Q 34.46875 45.796875 28.765625 45.796875 
Q 23 45.796875 18.796875 40.796875 
Q 14.59375 35.796875 14.59375 26.3125 
z
" id="ArialMT-98"/>
    </defs>
    <use xlink:href="#ArialMT-86"/>
    <use x="64.949219" xlink:href="#ArialMT-105"/>
    <use x="87.166016" xlink:href="#ArialMT-111"/>
    <use x="142.78125" xlink:href="#ArialMT-108"/>
    <use x="164.998047" xlink:href="#ArialMT-105"/>
    <use x="187.214844" xlink:href="#ArialMT-110"/>
    <use x="242.830078" xlink:href="#ArialMT-32"/>
    <use x="270.613281" xlink:href="#ArialMT-80"/>
    <use x="337.3125" xlink:href="#ArialMT-108"/>
    <use x="359.529297" xlink:href="#ArialMT-111"/>
    <use x="415.144531" xlink:href="#ArialMT-116"/>
    <use x="442.927734" xlink:href="#ArialMT-32"/>
    <use x="470.710938" xlink:href="#ArialMT-111"/>
    <use x="526.326172" xlink:href="#ArialMT-102"/>
    <use x="554.109375" xlink:href="#ArialMT-32"/>
    <use x="581.892578" xlink:href="#ArialMT-97"/>
    <use x="637.507812" xlink:href="#ArialMT-108"/>
    <use x="659.724609" xlink:href="#ArialMT-108"/>
    <use x="681.941406" xlink:href="#ArialMT-32"/>
    <use x="709.724609" xlink:href="#ArialMT-67"/>
    <use x="781.941406" xlink:href="#ArialMT-111"/>
    <use x="837.556641" xlink:href="#ArialMT-110"/>
    <use x="893.171875" xlink:href="#ArialMT-116"/>
    <use x="920.955078" xlink:href="#ArialMT-105"/>
    <use x="943.171875" xlink:href="#ArialMT-110"/>
    <use x="998.787109" xlink:href="#ArialMT-117"/>
    <use x="1054.402344" xlink:href="#ArialMT-111"/>
    <use x="1110.017578" xlink:href="#ArialMT-117"/>
    <use x="1165.632812" xlink:href="#ArialMT-115"/>
    <use x="1215.632812" xlink:href="#ArialMT-32"/>
    <use x="1243.416016" xlink:href="#ArialMT-86"/>
    <use x="1302.740234" xlink:href="#ArialMT-97"/>
    <use x="1358.355469" xlink:href="#ArialMT-114"/>
    <use x="1391.65625" xlink:href="#ArialMT-105"/>
    <use x="1413.873047" xlink:href="#ArialMT-97"/>
    <use x="1469.488281" xlink:href="#ArialMT-98"/>
    <use x="1525.103516" xlink:href="#ArialMT-108"/>
    <use x="1547.320312" xlink:href="#ArialMT-101"/>
    <use x="1602.935547" xlink:href="#ArialMT-115"/>
   </g>
  </g>
 </g>
 <defs>
  <clipPath id="p9b87581532">
   <rect height="219.5075" width="1035.65" x="31.39" y="39.6"/>
  </clipPath>
 </defs>
</svg>
